<svg xmlns="http://www.w3.org/2000/svg" xmlns:xlink="http://www.w3.org/1999/xlink" version="1.1" width="1280" height="720" viewBox="0 0 1280 720"><defs><clipPath id="clip1" clipPathUnits="userSpaceOnUse"><polygon points="98.86,127.48 626.47,127.48 609.57,570.43 81.96,570.43"/></clipPath></defs><image href="../assets/image1.png" x="0" y="0" width="1280" height="720" preserveAspectRatio="none"/>
<g id="shape-13" data-name="组合 12">
<g id="shape-2" data-name="文本框 1">
<rect x="61.67" y="65.26" width="56.41" height="45.24" fill="none"/>
<text x="71.27" y="95" text-anchor="start" xml:space="preserve" font-family="&quot;Tw Cen MT Condensed Extra Bold&quot;, &quot;等线&quot;, +mn-cs, sans-serif" font-size="29.33" fill="#000000" font-weight="bold"><tspan fill="#000000" font-size="29.33" font-weight="bold">5.1</tspan></text>
</g>
<g id="shape-3" data-name="文本框 2">
<rect x="110.3" y="68.49" width="100.67" height="42.01" fill="none"/>
<text x="119.9" y="95.96" text-anchor="start" xml:space="preserve" font-family="&quot;碳纤维正中黑简体&quot;, +mn-cs, sans-serif" font-size="26.67" fill="#000000" font-weight="bold"><tspan fill="#000000" font-size="26.67" font-weight="bold">案例一</tspan></text>
</g>
</g>
<g id="shape-4" data-name="文本框 3">
<rect x="1079.79" y="610.14" width="138.54" height="42.01" fill="none"/>
<text x="1089.39" y="637.6" text-anchor="start" xml:space="preserve" font-family="&quot;碳纤维正中黑简体&quot;, +mn-cs, sans-serif" font-size="26.67" fill="#0B88FF" font-weight="bold" font-style="italic" letter-spacing="2.67"><tspan fill="#0B88FF" font-size="26.67" font-weight="bold" font-style="italic" letter-spacing="2.67">案例</tspan><tspan fill="#000000" font-size="26.67" font-weight="bold" font-style="italic" letter-spacing="2.67">研究</tspan></text>
</g>
<g id="shape-6" data-name="图片 5">
<image href="../assets/image4.jpeg" x="1340.95" y="0" width="664.62" height="720" preserveAspectRatio="none"/>
</g>
<g id="shape-8" data-name="直接连接符 7" transform="translate(1001.65 631.14) scale(-1 1) translate(-1001.65 -631.14)">
<line x1="923.5" y1="631.14" x2="1079.79" y2="631.14" stroke-width="2.667" stroke="#0B88FF" fill="#0B88FF"/>
</g>
<g id="shape-10" data-name="文本框 9">
<rect x="770.7" y="639.22" width="447.63" height="67.86" fill="none"/>
<text x="1208.73" y="684.82" text-anchor="end" xml:space="preserve" font-family="&quot;Tw Cen MT Condensed Extra Bold&quot;, &quot;等线&quot;, +mn-cs, sans-serif" font-size="48" fill="#F2F2F2" font-style="italic"><tspan fill="#F2F2F2" font-size="48" font-style="italic">CASE STUDY</tspan></text>
</g>
<g id="shape-11" data-name="矩形 10">
<image href="../assets/image2.png" x="1149.13" y="46.33" width="69.2" height="69.2" preserveAspectRatio="none"/>
<rect x="1149.13" y="46.33" width="69.2" height="69.2" fill="none" stroke="none" stroke-width="1"/>
</g>
<g id="shape-12" data-name="直接连接符 11">
<line x1="68.12" y1="51.51" x2="127.55" y2="51.51" stroke-width="6.667" stroke="#0B88FF" fill="#0B88FF"/>
</g>
<g id="shape-14" data-name="文本框 13">
<rect x="57" y="607.56" width="138.71" height="54.93" fill="none"/>
<text x="66.6" y="628.22" text-anchor="start" xml:space="preserve" font-family="&quot;微软雅黑&quot;, +mn-cs, sans-serif" font-size="18.67" fill="#000000" font-weight="bold"><tspan fill="#000000" font-size="18.67" font-weight="bold">CASE STUDY</tspan></text>
<text x="66.6" y="646.89" text-anchor="start" xml:space="preserve" font-family="&quot;微软雅黑&quot;, +mn-cs, sans-serif" font-size="18.67" fill="#000000" font-weight="bold"><tspan fill="#000000" font-size="18.67" font-weight="bold">RESEARCH.</tspan></text>
</g>
<g id="shape-15" data-name="直接连接符 14">
<line x1="68.12" y1="671.06" x2="127.55" y2="671.06" stroke-width="6.667" stroke="#0B88FF" fill="#0B88FF"/>
</g>
<g id="shape-5" data-name="平行四边形 4">
<polygon points="91.4,138.53 616.58,138.53 597.24,581.47 72.06,581.47" stroke="none" fill="#0B88FF" stroke-width="1"/>
</g>
<g id="shape-17" data-name="平行四边形 16">
<image clip-path="url(#clip1)" href="../assets/image7.png" x="81.96" y="127.48" width="544.52" height="442.95" preserveAspectRatio="none"/>
<polygon points="98.86,127.48 626.47,127.48 609.57,570.43 81.96,570.43" fill="none" stroke-width="2.667" stroke="none"/>
</g>
<g id="shape-7" data-name="组合 6">
<g id="shape-19" data-name="文本框 18">
<rect x="730.63" y="133.85" width="324.5" height="48.47" fill="none"/>
<text x="740.23" y="165.85" text-anchor="start" xml:space="preserve" font-family="&quot;碳纤维正中黑简体&quot;, +mn-cs, sans-serif" font-size="32" fill="#000000"><tspan fill="#000000" font-size="32">这里是标题</tspan></text>
</g>
<g id="shape-20" data-name="文本框 19">
<rect x="663.42" y="182.86" width="544.52" height="171.26" fill="none"/>
<text x="673.02" y="210.33" text-anchor="start" xml:space="preserve" font-family="&quot;方正宋刻本秀楷简体&quot;, +mn-cs, sans-serif" font-size="26.67" fill="#000000"><tspan fill="#000000" font-size="26.67">Lorem ipsum dolor sit amet, </tspan><tspan x="673.02" dy="26.67" fill="#000000" font-size="26.67">consectetuer adipiscing elit. Maecenas </tspan><tspan x="673.02" dy="26.67" fill="#000000" font-size="26.67">porttitor congue massa. Fusce </tspan><tspan x="673.02" dy="26.67" fill="#000000" font-size="26.67">posuere, magna sed pulvinar ultricies, </tspan><tspan x="673.02" dy="26.67" fill="#000000" font-size="26.67">purus lectus malesuada libero, sit amet </tspan><tspan x="673.02" dy="26.67" fill="#000000" font-size="26.67">commodo magna eros quis </tspan><tspan fill="#000000" font-size="26.67">urna</tspan><tspan fill="#000000" font-size="26.67">. </tspan></text>
</g>
<g id="shape-21" data-name="文本框 20">
<rect x="909.61" y="130.35" width="203.28" height="48.47" fill="none"/>
<text x="919.21" y="162.35" text-anchor="start" xml:space="preserve" font-family="&quot;Tw Cen MT Condensed Extra Bold&quot;, &quot;方正宋刻本秀楷简体&quot;, +mn-cs, sans-serif" font-size="32" fill="#0B88FF" font-weight="bold"><tspan fill="#0B88FF" font-size="32" font-weight="bold">TEXT HERE</tspan></text>
</g>
<g id="shape-22" data-name="iconfont-11180-4674648">
<path d="M 688.9 175.62 C 680.54 175.62 673 170.58 669.8 162.86 C 666.6 155.13 668.37 146.24 674.28 140.32 C 680.19 134.41 689.09 132.64 696.81 135.84 C 704.54 139.04 709.58 146.58 709.58 154.94 C 709.58 160.43 707.4 165.69 703.52 169.56 C 699.64 173.44 694.38 175.62 688.9 175.62 Z M 699.69 148.32 C 699.12 147.74 698.18 147.74 697.61 148.32 L 686.12 159.8 L 680.2 153.88 C 679.62 153.33 678.7 153.34 678.14 153.91 C 677.57 154.47 677.56 155.39 678.11 155.97 L 685.07 162.94 C 685.65 163.51 686.58 163.51 687.16 162.94 L 699.69 150.4 C 700.27 149.83 700.27 148.89 699.69 148.32 Z" fill="#000000" stroke="none"/>
</g>
</g>
<g id="shape-9" data-name="组合 8">
<g id="shape-25" data-name="文本框 24">
<rect x="663.42" y="422.53" width="544.52" height="171.26" fill="none"/>
<text x="673.02" y="450" text-anchor="start" xml:space="preserve" font-family="&quot;方正宋刻本秀楷简体&quot;, +mn-cs, sans-serif" font-size="26.67" fill="#000000"><tspan fill="#000000" font-size="26.67">Lorem ipsum dolor sit amet, </tspan><tspan x="673.02" dy="26.67" fill="#000000" font-size="26.67">consectetuer adipiscing elit. Maecenas </tspan><tspan x="673.02" dy="26.67" fill="#000000" font-size="26.67">porttitor congue massa. Fusce </tspan><tspan x="673.02" dy="26.67" fill="#000000" font-size="26.67">posuere, magna sed pulvinar ultricies, </tspan><tspan x="673.02" dy="26.67" fill="#000000" font-size="26.67">purus lectus malesuada libero, sit amet </tspan><tspan x="673.02" dy="26.67" fill="#000000" font-size="26.67">commodo magna eros quis </tspan><tspan fill="#000000" font-size="26.67">urna</tspan><tspan fill="#000000" font-size="26.67">. </tspan></text>
</g>
<g id="shape-23" data-name="iconfont-10585-5147501">
<path d="M 701.87 389.33 C 699.51 384.39 694.11 381.67 688.74 382.72 C 683.36 383.77 679.37 388.32 679.04 393.78 C 674.34 395.13 670.92 399.26 670.92 404.12 C 670.92 409.87 675.68 414.59 681.66 414.93 L 701.81 414.93 C 708.45 414.93 713.9 409.18 713.9 402.1 C 713.89 395.27 708.59 389.67 701.87 389.33 Z M 698.4 402.64 L 696.99 402.64 C 696.61 402.63 696.3 402.93 696.29 403.31 L 696.27 410.18 C 696.25 410.94 695.62 411.55 694.86 411.53 L 689.95 411.53 C 689.18 411.55 688.56 410.94 688.54 410.18 L 688.52 403.31 C 688.51 402.93 688.2 402.63 687.82 402.64 L 686.41 402.64 C 685.65 402.65 685.02 402.05 685 401.29 C 684.99 401 685.09 400.72 685.27 400.49 L 691.15 393.71 C 691.85 393.05 692.95 393.05 693.65 393.71 L 699.53 400.49 C 699.71 400.72 699.8 401 699.8 401.29 C 699.79 402.05 699.16 402.65 698.4 402.64 Z" fill="#000000" stroke="none"/>
</g>
<g id="shape-24" data-name="文本框 23">
<rect x="730.63" y="377.56" width="324.5" height="48.47" fill="none"/>
<text x="740.23" y="409.56" text-anchor="start" xml:space="preserve" font-family="&quot;碳纤维正中黑简体&quot;, +mn-cs, sans-serif" font-size="32" fill="#000000"><tspan fill="#000000" font-size="32">这里是标题</tspan></text>
</g>
<g id="shape-26" data-name="文本框 25">
<rect x="909.61" y="374.06" width="203.28" height="48.47" fill="none"/>
<text x="919.21" y="406.06" text-anchor="start" xml:space="preserve" font-family="&quot;Tw Cen MT Condensed Extra Bold&quot;, &quot;方正宋刻本秀楷简体&quot;, +mn-cs, sans-serif" font-size="32" fill="#0B88FF" font-weight="bold"><tspan fill="#0B88FF" font-size="32" font-weight="bold">TEXT HERE</tspan></text>
</g>
</g></svg>